<?xml version="1.0" encoding="UTF-8" standalone="no"?>
<svg
   id="Layer_2"
   data-name="Layer 2"
   viewBox="0 0 43.139999 43.139995"
   version="1.1"
   sodipodi:docname="Asset 7.svg"
   width="342.42584"
   height="342.42581"
   xmlns:inkscape="http://www.inkscape.org/namespaces/inkscape"
   xmlns:sodipodi="http://sodipodi.sourceforge.net/DTD/sodipodi-0.dtd"
   xmlns="http://www.w3.org/2000/svg"
   xmlns:svg="http://www.w3.org/2000/svg">
  <sodipodi:namedview
     id="namedview11"
     pagecolor="#ffffff"
     bordercolor="#000000"
     borderopacity="0.25"
     inkscape:showpageshadow="2"
     inkscape:pageopacity="0.0"
     inkscape:pagecheckerboard="0"
     inkscape:deskcolor="#d1d1d1" />
  <defs
     id="defs3">
    <style
       id="style1">&#10;      .cls-1 {&#10;        clip-path: url(#clippath-2);&#10;      }&#10;&#10;      .cls-2, .cls-3, .cls-4 {&#10;        stroke-width: 0px;&#10;      }&#10;&#10;      .cls-2, .cls-5 {&#10;        fill: none;&#10;      }&#10;&#10;      .cls-6 {&#10;        clip-path: url(#clippath-1);&#10;      }&#10;&#10;      .cls-3 {&#10;        fill: #fff;&#10;      }&#10;&#10;      .cls-7 {&#10;        clip-path: url(#clippath);&#10;      }&#10;&#10;      .cls-8 {&#10;        clip-path: url(#clippath-3);&#10;      }&#10;&#10;      .cls-4 {&#10;        fill: #34c2e8;&#10;      }&#10;&#10;      .cls-5 {&#10;        stroke: #000;&#10;        stroke-miterlimit: 10;&#10;        stroke-width: .22px;&#10;      }&#10;    </style>
  </defs>
  <g
     id="g11"
     inkscape:export-filename="logos.svg"
     inkscape:export-xdpi="92.523804"
     inkscape:export-ydpi="92.523804"
     transform="translate(-70.800003,-29.780001)">
    <path
       class="cls-4"
       d="m 113.94,51.35 c 0,11.92 -9.66,21.57 -21.57,21.57 -11.91,0 -21.57,-9.66 -21.57,-21.57 0,-11.91 9.66,-21.57 21.57,-21.57 11.91,0 21.57,9.66 21.57,21.57"
       id="path3" />
    <path
       class="cls-3"
       d="m 76.69,41.37 v 2.61 h 1.74 v 5.67 h 3.25 V 44 h 1.44 v -2.64 c -2.03,0 -4.07,0 -6.1,0 -0.11,0 -0.23,0.01 -0.33,0.02"
       id="path4" />
    <path
       class="cls-3"
       d="m 105.84,42.37 c -1.73,-1.56 -4.4,-1.43 -5.97,0.3 -0.66,0.73 -1.01,1.63 -1.08,2.54 -0.15,-2.21 -1.98,-3.95 -4.23,-3.94 -1.64,0 -3.05,0.95 -3.75,2.31 V 43.5 c -0.15,-0.72 -0.48,-1.26 -1.07,-1.63 -0.66,-0.42 -1.39,-0.54 -2.14,-0.54 -1.43,0 -2.85,0 -4.28,0 v 4.21 0 4.08 h 3.15 v -2.95 c 0.52,1.07 0.98,2.02 1.43,2.94 h 3.61 C 91.13,49 90.79,48.44 90.44,47.88 c -0.35,-0.56 -0.69,-1.12 -1.05,-1.7 0.38,-0.19 0.68,-0.43 0.96,-0.72 0,0.02 0,0.04 0.01,0.06 v -0.03 c 0.01,2.33 1.91,4.22 4.24,4.21 2.23,0 4.04,-1.74 4.19,-3.93 0.07,1.05 0.54,2.08 1.38,2.84 1.73,1.56 4.4,1.43 5.97,-0.3 1.56,-1.73 1.43,-4.4 -0.3,-5.97 M 88,44.48 c -0.36,0.52 -0.94,0.37 -1.5,0.43 v -1.78 c 0.55,0.02 1.11,-0.09 1.49,0.4 0.22,0.28 0.21,0.66 0.01,0.95 m 4.77,1.93 v -1.87 c 0,0 3.61,-0.01 3.61,-0.01 v 1.87 z m 10.77,1.02 -2.44,-2.67 1.38,-1.26 2.44,2.67 z"
       id="path5" />
    <path
       class="cls-3"
       d="m 105.13,53.12 c -1.38,-0.24 -2.78,-0.06 -4.17,-0.1 -0.11,0 -0.22,0.01 -0.35,0.02 v 3.26 c -0.14,-0.7 -0.47,-1.36 -0.98,-1.93 -1.56,-1.73 -4.23,-1.87 -5.96,-0.3 -0.85,0.76 -1.31,1.79 -1.38,2.84 -0.15,-2.2 -1.98,-3.94 -4.22,-3.93 -1.98,0 -3.64,1.38 -4.08,3.23 h -3.6 v 1.71 h 0.79 v 0.82 c -0.56,0.19 -1.16,0.07 -1.37,-0.34 -0.38,-0.73 -0.38,-1.53 -0.06,-2.27 0.28,-0.64 0.94,-0.62 1.53,-0.64 0.63,-0.03 1.23,0.12 1.86,0.25 v -2.4 c -0.11,-0.05 -0.22,-0.11 -0.33,-0.16 -1.06,-0.41 -2.14,-0.37 -3.22,-0.12 -1.83,0.43 -3.14,1.9 -3.25,3.63 -0.13,2.08 0.81,3.7 2.56,4.39 1.01,0.4 2.06,0.38 3.11,0.23 0.68,-0.09 1.34,-0.28 1.92,-0.73 v -2.03 c 0,0 0,0.01 0,0.02 v -0.62 c 0.36,1.97 2.09,3.47 4.16,3.46 2.23,0 4.04,-1.74 4.19,-3.93 0.06,0.91 0.42,1.81 1.08,2.54 1.56,1.73 4.23,1.87 5.96,0.3 0.69,-0.62 1.12,-1.42 1.3,-2.26 v 3.23 c 0.07,0.01 0.13,0.03 0.18,0.03 1.17,0 2.34,0.04 3.51,-0.01 2.43,-0.11 3.8,-1.42 4.05,-3.82 0.23,-2.16 -1.12,-4.02 -3.25,-4.39 m -17.96,5.88 v -3.62 c 0,0 1.86,0 1.86,0 v 3.62 z m 8.62,0.09 -1.25,-1.39 2.68,-2.42 1.25,1.39 z m 9.36,-1.03 c -0.34,0.61 -0.93,0.56 -1.53,0.56 v -2.84 c 0.47,-0.17 1.13,-0.03 1.41,0.29 0.33,0.38 0.41,1.47 0.12,1.99"
       id="path6" />
  </g>
</svg>
