<?xml version="1.0" encoding="UTF-8"?>
<svg id="Layer_2" data-name="Layer 2" xmlns="http://www.w3.org/2000/svg" xmlns:xlink="http://www.w3.org/1999/xlink" viewBox="0 0 219.28 219.47">
  <defs>
    <style>
      .cls-1 {
        fill: none;
      }

      .cls-1, .cls-2 {
        stroke-width: 0px;
      }

      .cls-2 {
        fill: #fff;
      }

      .cls-3 {
        clip-path: url(#clippath);
      }
    </style>
    <clipPath id="clippath">
      <rect class="cls-1" x="0" y="0" width="219.28" height="219.47"/>
    </clipPath>
  </defs>
  <g id="Layer_1-2" data-name="Layer 1">
    <g class="cls-3">
      <path class="cls-2" d="m0,56.12c.25-.88.51-1.77.76-2.65,2.34-8.21,9.64-13.88,18.16-14.04,4.43-.08,8.85-.04,13.28-.02,9.41.05,16.81,5.84,19.17,15.01.9,3.52,1.74,7.05,2.63,10.67h165.29c-.26.95-.47,1.74-.69,2.51-9.34,32.69-18.7,65.37-27.98,98.07-.5,1.75-1.21,2.29-3.04,2.29-38.34-.06-76.68-.05-115.02-.03-1.06,0-2.16.02-3.17.3-3.08.85-5.02,3.76-4.67,6.8.35,3.06,2.89,5.48,6.01,5.72.71.05,1.43.02,2.14.02,33.48,0,66.97-.01,100.45,0,10.88,0,19.54,7.98,19.82,18.37.21,8.08-3.29,14.29-10.48,17.98-7.21,3.71-14.34,2.95-20.67-2.07-6.34-5.02-8.45-11.77-6.78-19.69.1-.48.22-.96.38-1.61h-40.36c2.33,9.82-.22,17.89-9.15,23.07-6.69,3.88-13.61,3.36-20.04-.89-7.07-4.67-9.19-11.09-7.65-22.33-2.07,0-4.1,0-6.14,0-9.84-.01-17.46-5.59-19.78-14.48-2.3-8.78,1.56-17.15,10.17-22.09.18-.1.33-.26.63-.51-1.71-6.98-3.43-14.03-5.16-21.07-6.07-24.64-12.14-49.27-18.22-73.91-.36-1.45-.7-2.9-1.09-4.34-.82-3-3.13-4.9-6.21-4.94-4.43-.06-8.85-.07-13.28,0-3.46.05-5.36,1.91-6.71,6.41H0v-2.57m57.31,21.92c.1.67.13,1.09.23,1.5,6.01,24.42,12.05,48.84,18,73.28.45,1.83,1.17,2.3,2.98,2.3,33.12-.06,66.23-.04,99.35-.04h2.36c7.37-25.75,14.69-51.33,22.05-77.04H57.31Zm39.47,128.43c3.46.02,6.4-2.87,6.45-6.34.05-3.46-2.82-6.42-6.28-6.5-3.55-.08-6.57,2.89-6.55,6.44.01,3.46,2.93,6.38,6.39,6.39m83.56-6.47c-.03-3.46-2.96-6.36-6.42-6.36-3.47,0-6.39,2.9-6.41,6.37-.03,3.54,2.99,6.53,6.53,6.47,3.47-.06,6.34-3.01,6.31-6.47"/>
      <rect class="cls-2" x="122.52" width="12.85" height="25.55"/>
      <path class="cls-2" d="m74.94,25.01c2.69-2.68,5.62-5.58,8.42-8.37,5.83,5.88,11.78,11.88,17.56,17.71-2.63,2.62-5.58,5.56-8.46,8.42-5.61-5.68-11.54-11.7-17.52-17.76"/>
      <path class="cls-2" d="m165.26,42.91c-2.8-2.8-5.74-5.75-8.56-8.56,5.83-5.84,11.8-11.81,17.65-17.66,2.82,2.82,5.76,5.76,8.63,8.63-5.85,5.81-11.85,11.76-17.72,17.59"/>
    </g>
  </g>
</svg>